<svg width="52" height="50" viewBox="0 0 52 50" fill="none" xmlns="http://www.w3.org/2000/svg">
<path d="M39.4826 11.1113H28.891V2.77946C28.8914 2.22985 28.7222 1.69247 28.4049 1.23535C28.0875 0.778225 27.6362 0.421917 27.1081 0.211531C26.58 0.00114561 25.9988 -0.0538573 25.4382 0.0534856C24.8775 0.160828 24.3626 0.42569 23.9586 0.81454L0.849609 23.0328C0.580312 23.2908 0.366639 23.5974 0.220844 23.935C0.0750492 24.2725 0 24.6345 0 25C0 25.3655 0.0750492 25.7275 0.220844 26.065C0.366639 26.4026 0.580312 26.7092 0.849609 26.9672L23.9586 49.1855C24.3629 49.5746 24.8783 49.8395 25.4394 49.9467C26.0004 50.0539 26.582 49.9985 27.1103 49.7876C27.6386 49.5766 28.0899 49.2196 28.4069 48.7618C28.7239 48.3039 28.8924 47.7659 28.891 47.2159V38.8841H39.4826C40.2487 38.8841 40.9834 38.5915 41.5252 38.0706C42.0669 37.5498 42.3712 36.8434 42.3712 36.1068V13.8886C42.3712 13.152 42.0669 12.4456 41.5252 11.9247C40.9834 11.4039 40.2487 11.1113 39.4826 11.1113ZM36.594 33.3295H26.0023C25.2362 33.3295 24.5015 33.6221 23.9598 34.143C23.418 34.6638 23.1137 35.3702 23.1137 36.1068V40.5041L6.98554 24.9977L23.1137 9.49122V13.8886C23.1137 14.6252 23.418 15.3316 23.9598 15.8524C24.5015 16.3732 25.2362 16.6658 26.0023 16.6658H36.594V33.3295ZM52 13.8886V36.1068C52 36.8434 51.6957 37.5498 51.1539 38.0706C50.6122 38.5915 49.8775 38.8841 49.1114 38.8841C48.3453 38.8841 47.6105 38.5915 47.0688 38.0706C46.5271 37.5498 46.2227 36.8434 46.2227 36.1068V13.8886C46.2227 13.152 46.5271 12.4456 47.0688 11.9247C47.6105 11.4039 48.3453 11.1113 49.1114 11.1113C49.8775 11.1113 50.6122 11.4039 51.1539 11.9247C51.6957 12.4456 52 13.152 52 13.8886Z" fill="black"/>
</svg>
