<svg width="34" height="20" viewBox="0 0 34 20" fill="none" xmlns="http://www.w3.org/2000/svg">
<path d="M33.2911 15.2123C33.1422 15.3121 32.978 15.3764 32.8079 15.4015C32.6379 15.4267 32.4652 15.4121 32.2999 15.3588C32.1346 15.3054 31.9799 15.2143 31.8446 15.0906C31.7094 14.9668 31.5962 14.813 31.5115 14.6378L28.4151 8.2798C26.615 9.71021 24.6292 10.7877 22.5353 11.4703L23.4919 18.2152C23.5201 18.4137 23.5148 18.6169 23.4761 18.813C23.4375 19.0091 23.3664 19.1944 23.2668 19.3582C23.1672 19.522 23.0411 19.6611 22.8957 19.7676C22.7504 19.8742 22.5886 19.946 22.4196 19.9789C22.3501 19.9923 22.2798 19.9993 22.2093 20C21.9009 19.9995 21.6026 19.8704 21.3675 19.6359C21.1324 19.4013 20.9757 19.0764 20.9252 18.7188L19.9848 12.0965C18.0018 12.421 15.9902 12.421 14.0072 12.0965L13.0669 18.7188C13.0163 19.077 12.8591 19.4025 12.6233 19.6371C12.3875 19.8718 12.0884 20.0004 11.7794 20C11.7074 19.9996 11.6354 19.9926 11.5643 19.9789C11.3953 19.946 11.2335 19.8742 11.0881 19.7676C10.9427 19.6611 10.8167 19.522 10.7171 19.3582C10.6175 19.1944 10.5463 19.0091 10.5077 18.813C10.4691 18.6169 10.4637 18.4137 10.492 18.2152L11.4535 11.4703C9.36034 10.7856 7.37567 9.70611 5.57687 8.27405L2.49027 14.6378C2.40466 14.8131 2.29051 14.9669 2.15434 15.0903C2.01817 15.2138 1.86264 15.3045 1.69663 15.3573C1.53062 15.4101 1.35739 15.424 1.18682 15.3981C1.01624 15.3723 0.851677 15.3072 0.702511 15.2066C0.553345 15.106 0.4225 14.9719 0.317448 14.8118C0.212396 14.6518 0.135193 14.4691 0.0902482 14.274C0.0453034 14.0789 0.0334964 13.8753 0.0555014 13.6749C0.0775064 13.4744 0.132892 13.2811 0.218497 13.1058L3.47785 6.40303C2.33302 5.24072 1.28028 3.95876 0.332575 2.5729C0.214389 2.41784 0.124334 2.2361 0.0679081 2.03877C0.011482 1.84145 -0.0101321 1.63268 0.00438567 1.42521C0.0189034 1.21774 0.0692484 1.01593 0.152347 0.832087C0.235446 0.648244 0.349555 0.48623 0.487709 0.355934C0.625864 0.225639 0.785165 0.129796 0.955889 0.0742545C1.12661 0.0187131 1.30518 0.00463867 1.48068 0.0328913C1.65619 0.061144 1.82496 0.131131 1.97668 0.238579C2.12841 0.346027 2.2599 0.488683 2.36315 0.657839C5.06841 4.59138 9.80099 9.27563 16.9944 9.27563C24.1878 9.27563 28.9203 4.58564 31.6256 0.657839C31.7277 0.48522 31.8589 0.33913 32.0111 0.228657C32.1632 0.118183 32.3331 0.04569 32.5102 0.0156871C32.6872 -0.0143158 32.8676 -0.00118648 33.0401 0.0542581C33.2127 0.109703 33.3737 0.206277 33.5131 0.337972C33.6525 0.469667 33.7674 0.633665 33.8505 0.819764C33.9337 1.00586 33.9834 1.21008 33.9965 1.41971C34.0096 1.62934 33.9859 1.83991 33.9268 2.0383C33.8677 2.23669 33.7744 2.41866 33.6529 2.5729C32.7052 3.95876 31.6525 5.24072 30.5076 6.40303L33.767 13.1058C33.8545 13.2805 33.9116 13.4739 33.935 13.6747C33.9585 13.8756 33.9477 14.0799 33.9035 14.2758C33.8592 14.4718 33.7823 14.6555 33.6772 14.8162C33.5721 14.977 33.4409 15.1116 33.2911 15.2123Z" fill="#C2B3B3"/>
</svg>
