<svg width="257" height="256" viewBox="0 0 257 256" fill="none" xmlns="http://www.w3.org/2000/svg">
<path d="M224.15 128C224.15 130.122 223.308 132.157 221.807 133.657C220.307 135.157 218.272 136 216.15 136H136.15V216C136.15 218.122 135.308 220.157 133.807 221.657C132.307 223.157 130.272 224 128.15 224C126.029 224 123.994 223.157 122.494 221.657C120.993 220.157 120.15 218.122 120.15 216V136H40.1504C38.0287 136 35.9938 135.157 34.4935 133.657C32.9932 132.157 32.1504 130.122 32.1504 128C32.1504 125.878 32.9932 123.843 34.4935 122.343C35.9938 120.843 38.0287 120 40.1504 120H120.15V40C120.15 37.8783 120.993 35.8434 122.494 34.3431C123.994 32.8429 126.029 32 128.15 32C130.272 32 132.307 32.8429 133.807 34.3431C135.308 35.8434 136.15 37.8783 136.15 40V120H216.15C218.272 120 220.307 120.843 221.807 122.343C223.308 123.843 224.15 125.878 224.15 128Z" fill="black"/>
</svg>
