<svg width="55" height="55" viewBox="0 0 55 55" fill="none" xmlns="http://www.w3.org/2000/svg">
<path d="M27.5 14.34C24.8965 14.34 22.3515 15.1118 20.1868 16.5578C18.0221 18.0039 16.3349 20.0592 15.3386 22.4639C14.3422 24.8686 14.0816 27.5146 14.5895 30.0674C15.0974 32.6202 16.3511 34.9651 18.192 36.8056C20.033 38.646 22.3785 39.8994 24.9319 40.4072C27.4854 40.915 30.1321 40.6543 32.5374 39.6583C34.9427 38.6622 36.9986 36.9755 38.445 34.8113C39.8914 32.6472 40.6635 30.1028 40.6635 27.5C40.6594 24.011 39.2713 20.666 36.8035 18.1989C34.3358 15.7318 30.9899 14.344 27.5 14.34ZM27.5 34.5862C26.0981 34.5862 24.7277 34.1706 23.5621 33.3919C22.3965 32.6133 21.488 31.5066 20.9515 30.2118C20.4151 28.9169 20.2747 27.4921 20.5482 26.1176C20.8217 24.743 21.4967 23.4803 22.488 22.4893C23.4793 21.4983 24.7423 20.8234 26.1172 20.55C27.4921 20.2766 28.9173 20.4169 30.2125 20.9532C31.5076 21.4896 32.6146 22.3978 33.3935 23.5631C34.1723 24.7284 34.588 26.0985 34.588 27.5C34.588 29.3794 33.8412 31.1818 32.512 32.5107C31.1827 33.8396 29.3799 34.5862 27.5 34.5862ZM50.7892 27.6999V27.3001L54.3332 22.8687C54.6307 22.4974 54.8368 22.0614 54.9348 21.5959C55.0329 21.1303 55.0202 20.6483 54.8977 20.1886C54.258 17.7771 53.3022 15.4607 52.0549 13.2998C51.8146 12.8877 51.4806 12.5381 51.0799 12.2791C50.6793 12.0201 50.2232 11.8591 49.7488 11.8092L44.1087 11.1765L43.8277 10.8956L43.1949 5.25446C43.1445 4.78055 42.9833 4.32514 42.7243 3.92505C42.4653 3.52497 42.1157 3.19145 41.7039 2.95145C39.5423 1.70054 37.2244 0.741469 34.8108 0.0992672C34.3505 -0.0213535 33.8684 -0.0322084 33.4032 0.067577C32.938 0.167362 32.5028 0.374998 32.1325 0.673754L27.7 4.21684H27.3L22.8675 0.673754C22.4961 0.37634 22.06 0.170317 21.5943 0.0722887C21.1287 -0.0257396 20.6465 -0.0130307 20.1867 0.109391C17.7739 0.752884 15.457 1.71279 13.2961 2.96411C12.8856 3.20311 12.5368 3.53505 12.2778 3.93326C12.0189 4.33148 11.857 4.78486 11.8051 5.25699L11.1723 10.8956L10.8913 11.1765L5.2487 11.8092C4.77467 11.8595 4.31914 12.0207 3.91895 12.2796C3.51876 12.5386 3.18515 12.8881 2.9451 13.2998C1.69738 15.4614 0.741472 17.7786 0.102301 20.1911C-0.019734 20.6505 -0.0322314 21.132 0.0658143 21.5971C0.16386 22.0621 0.369712 22.4977 0.66681 22.8687L4.21082 27.3001V27.6999L0.66681 32.1313C0.36932 32.5026 0.163243 32.9386 0.0651895 33.4041C-0.0328642 33.8697 -0.020152 34.3517 0.102301 34.8114C0.74676 37.2237 1.70777 39.5401 2.96029 41.7002C3.1991 42.1103 3.53073 42.4588 3.92858 42.7177C4.32643 42.9765 4.77943 43.1386 5.25124 43.1908L10.8913 43.8185L11.1723 44.0994L11.8051 49.7455C11.8555 50.2194 12.0167 50.6749 12.2757 51.0749C12.5347 51.475 12.8843 51.8086 13.2961 52.0485C15.4577 53.2995 17.7756 54.2585 20.1892 54.9007C20.6495 55.0214 21.1316 55.0322 21.5968 54.9324C22.062 54.8326 22.4972 54.625 22.8675 54.3262L27.3 50.7832H27.7L32.1325 54.3262C32.5039 54.6237 32.94 54.8297 33.4057 54.9277C33.8713 55.0257 34.3535 55.013 34.8133 54.8906C37.2255 54.2511 39.5424 53.2955 41.7039 52.0485C42.1154 51.8101 42.4651 51.4784 42.725 51.0802C42.9848 50.6819 43.1475 50.2283 43.2 49.7557L43.8277 44.1171L44.1087 43.8362L49.7513 43.1908C50.224 43.1384 50.6778 42.9758 51.0762 42.716C51.4745 42.4562 51.8063 42.1065 52.0448 41.6951C53.296 39.5341 54.2553 37.2168 54.8977 34.8038C55.0189 34.3452 55.031 33.8646 54.9329 33.4005C54.8349 32.9365 54.6295 32.5018 54.3332 32.1313L50.7892 27.6999ZM44.6834 26.4624C44.7239 27.1535 44.7239 27.8465 44.6834 28.5376C44.6381 29.2889 44.8736 30.0303 45.3441 30.6179L48.5944 34.6798C48.2876 35.5878 47.9214 36.4746 47.4983 37.3346L42.3266 37.9091C41.5778 37.9947 40.8876 38.3555 40.3901 38.9214C39.9302 39.4394 39.4399 39.9295 38.9218 40.3893C38.3558 40.8867 37.9949 41.5767 37.9093 42.3253L37.3372 47.4931C36.4771 47.9179 35.59 48.2856 34.6817 48.594L30.6187 45.342C30.0795 44.9119 29.41 44.678 28.7202 44.6789H28.5379C27.8466 44.7195 27.1534 44.7195 26.4621 44.6789C25.7111 44.6344 24.9701 44.8688 24.3813 45.3369L20.3183 48.589C19.4101 48.2822 18.5231 47.9161 17.6629 47.4931L17.0882 42.3228C17.0026 41.5742 16.6417 40.8841 16.0756 40.3867C15.5576 39.927 15.0673 39.4368 14.6074 38.9189C14.1099 38.353 13.4196 37.9921 12.6709 37.9066L7.50168 37.3346C7.07685 36.4747 6.709 35.5879 6.40051 34.6798L9.65087 30.6179C10.1214 30.0303 10.3568 29.2889 10.3116 28.5376C10.271 27.8465 10.271 27.1535 10.3116 26.4624C10.3568 25.7111 10.1214 24.9697 9.65087 24.3821L6.40557 20.3202C6.71242 19.4122 7.07858 18.5254 7.50168 17.6654L12.6734 17.0909C13.4222 17.0053 14.1124 16.6445 14.6099 16.0786C15.0698 15.5606 15.5601 15.0705 16.0782 14.6107C16.6442 14.1133 17.0051 13.4233 17.0907 12.6747L17.6629 7.50685C18.5229 7.08214 19.41 6.71438 20.3183 6.40597L24.3813 9.65801C24.9701 10.1262 25.7111 10.3605 26.4621 10.316C27.1534 10.2755 27.8466 10.2755 28.5379 10.316C29.2891 10.362 30.0306 10.1275 30.6187 9.65801L34.6817 6.40597C35.59 6.71438 36.4771 7.08214 37.3372 7.50685L37.9118 12.6772C37.9974 13.4258 38.3583 14.1159 38.9244 14.6133C39.4425 15.073 39.9327 15.5632 40.3926 16.0811C40.8901 16.647 41.5804 17.0079 42.3291 17.0934L47.4983 17.6654C47.9232 18.5253 48.291 19.4121 48.5995 20.3202L45.3491 24.3821C44.8768 24.969 44.6396 25.7104 44.6834 26.4624Z" fill="black"/>
</svg>
