<svg width="218" height="218" viewBox="0 0 218 218" fill="none" xmlns="http://www.w3.org/2000/svg">
<path d="M109 57C98.7155 57 88.6618 60.0498 80.1104 65.7636C71.5591 71.4774 64.8941 79.5987 60.9584 89.1005C57.0226 98.6022 55.9928 109.058 57.9993 119.145C60.0057 129.232 64.9582 138.497 72.2305 145.77C79.5029 153.042 88.7684 157.994 98.8554 160.001C108.942 162.007 119.398 160.978 128.9 157.042C138.401 153.106 146.523 146.441 152.237 137.89C157.95 129.338 161 119.285 161 109C160.984 95.2136 155.501 81.9964 145.752 72.248C136.004 62.4995 122.786 57.0159 109 57ZM109 137C103.462 137 98.0487 135.358 93.4441 132.281C88.8395 129.204 85.2507 124.831 83.1315 119.715C81.0122 114.599 80.4577 108.969 81.5381 103.537C82.6185 98.106 85.2852 93.1169 89.2011 89.201C93.117 85.2851 98.1061 82.6184 103.538 81.538C108.969 80.4576 114.599 81.0121 119.715 83.1314C124.832 85.2506 129.205 88.8395 132.281 93.444C135.358 98.0486 137 103.462 137 109C137 116.426 134.05 123.548 128.799 128.799C123.548 134.05 116.426 137 109 137ZM201 109.79V108.21L215 90.7C216.175 89.2328 216.989 87.5101 217.377 85.6707C217.764 83.8312 217.714 81.9265 217.23 80.11C214.703 70.5812 210.927 61.4285 206 52.89C205.051 51.2618 203.731 49.8801 202.149 48.8568C200.566 47.8335 198.764 47.1974 196.89 47L174.61 44.5L173.5 43.39L171 21.1C170.801 19.2274 170.164 17.4279 169.141 15.847C168.118 14.2662 166.737 12.9483 165.11 12C156.571 7.05721 147.415 3.26757 137.88 0.730009C136.062 0.253394 134.157 0.210502 132.32 0.604789C130.482 0.999077 128.763 1.81952 127.3 3.00001L109.79 17H108.21L90.7001 3.00001C89.2329 1.82482 87.5102 1.01075 85.6708 0.623407C83.8313 0.236062 81.9266 0.28628 80.1101 0.770009C70.5788 3.31268 61.426 7.10561 52.8901 12.05C51.2682 12.9944 49.8905 14.306 48.8675 15.8795C47.8446 17.453 47.205 19.2445 47.0001 21.11L44.5001 43.39L43.3901 44.5L21.1001 47C19.2275 47.1989 17.428 47.8357 15.8471 48.8589C14.2663 49.8822 12.9484 51.2631 12.0001 52.89C7.07118 61.4312 3.29503 70.5874 0.770089 80.12C0.288011 81.935 0.238642 83.8378 0.625955 85.6754C1.01327 87.513 1.82645 89.234 3.00009 90.7L17.0001 108.21V109.79L3.00009 127.3C1.8249 128.767 1.01083 130.49 0.623487 132.329C0.236142 134.169 0.28636 136.074 0.770089 137.89C3.31592 147.422 7.11222 156.575 12.0601 165.11C13.0035 166.731 14.3135 168.108 15.8852 169.13C17.4568 170.153 19.2463 170.794 21.1101 171L43.3901 173.48L44.5001 174.59L47.0001 196.9C47.199 198.773 47.8358 200.572 48.859 202.153C49.8822 203.734 51.2632 205.052 52.8901 206C61.4292 210.943 70.5855 214.732 80.1201 217.27C81.9382 217.747 83.8428 217.79 85.6805 217.395C87.5182 217.001 89.2375 216.181 90.7001 215L108.21 201H109.79L127.3 215C128.767 216.175 130.49 216.989 132.329 217.377C134.169 217.764 136.074 217.714 137.89 217.23C147.419 214.703 156.572 210.927 165.11 206C166.736 205.058 168.117 203.747 169.144 202.174C170.17 200.6 170.813 198.807 171.02 196.94L173.5 174.66L174.61 173.55L196.9 171C198.767 170.793 200.56 170.15 202.134 169.124C203.707 168.097 205.018 166.716 205.96 165.09C210.903 156.551 214.693 147.395 217.23 137.86C217.709 136.048 217.757 134.149 217.369 132.315C216.982 130.481 216.171 128.764 215 127.3L201 109.79ZM176.88 104.9C177.04 107.631 177.04 110.369 176.88 113.1C176.701 116.069 177.632 118.998 179.49 121.32L192.33 137.37C191.118 140.958 189.671 144.462 188 147.86L167.57 150.13C164.612 150.468 161.886 151.894 159.92 154.13C158.103 156.177 156.167 158.113 154.12 159.93C151.884 161.896 150.458 164.622 150.12 167.58L147.86 188C144.462 189.678 140.958 191.131 137.37 192.35L121.32 179.5C119.19 177.8 116.545 176.876 113.82 176.88H113.1C110.369 177.04 107.631 177.04 104.9 176.88C101.933 176.704 99.0061 177.63 96.6801 179.48L80.6301 192.33C77.0424 191.118 73.5382 189.671 70.1401 188L67.8701 167.57C67.5319 164.612 66.1062 161.886 63.8701 159.92C61.8235 158.103 59.8867 156.167 58.0701 154.12C56.1046 151.884 53.378 150.458 50.4201 150.12L30.0001 147.86C28.3219 144.462 26.8687 140.958 25.6501 137.37L38.4901 121.32C40.3487 118.998 41.2788 116.069 41.1001 113.1C40.9399 110.369 40.9399 107.631 41.1001 104.9C41.2788 101.931 40.3487 99.0019 38.4901 96.68L25.6701 80.63C26.8822 77.0423 28.3287 73.5381 30.0001 70.14L50.4301 67.87C53.388 67.5318 56.1146 66.1062 58.0801 63.87C59.8967 61.8234 61.8334 59.8866 63.8801 58.07C66.1162 56.1045 67.5419 53.3779 67.8801 50.42L70.1401 30C73.5377 28.3218 77.0419 26.8687 80.6301 25.65L96.6801 38.5C99.0061 40.3499 101.933 41.2758 104.9 41.1C107.631 40.9398 110.369 40.9398 113.1 41.1C116.068 41.2815 118.997 40.355 121.32 38.5L137.37 25.65C140.958 26.8687 144.462 28.3218 147.86 30L150.13 50.43C150.468 53.3879 151.894 56.1145 154.13 58.08C156.177 59.8966 158.113 61.8334 159.93 63.88C161.896 66.1161 164.622 67.5418 167.58 67.88L188 70.14C189.678 73.5376 191.131 77.0418 192.35 80.63L179.51 96.68C177.644 98.999 176.707 101.929 176.88 104.9Z" fill="black"/>
</svg>
