<svg width="67" height="61" viewBox="0 0 67 61" fill="none" xmlns="http://www.w3.org/2000/svg">
<path d="M64.1624 0.335112C63.3231 0.00379247 62.3991 -0.0843472 61.507 0.0818332C60.615 0.248014 59.7949 0.661055 59.1505 1.26875L59.0552 1.36212L53.0154 7.96296C47.2049 4.3902 40.4266 2.48889 33.5 2.48889C26.5734 2.48889 19.7951 4.3902 13.9846 7.96296L7.94475 1.37457L7.84951 1.2812C7.20666 0.67199 6.38764 0.257039 5.49597 0.0887984C4.6043 -0.0794424 3.68001 0.00657894 2.83992 0.33599C1.99983 0.6654 1.28166 1.22341 0.776171 1.9395C0.270687 2.65558 0.000583623 3.49759 0 4.35911V31.7459C0 47.8761 15.029 61 33.5 61C51.971 61 67 47.8761 67 31.7459V4.35911C66.9998 3.49769 66.7301 2.65566 66.225 1.93943C65.72 1.2232 65.0022 0.664912 64.1624 0.335112ZM63.0588 31.7459C63.0588 45.2464 50.8543 56.3318 35.4706 57.2063V49.9457L40.1475 45.514C40.5123 45.1631 40.716 44.6897 40.7142 44.1971C40.7123 43.7045 40.5052 43.2326 40.1378 42.884C39.7704 42.5355 39.2726 42.3386 38.7527 42.3364C38.2329 42.3341 37.7331 42.5265 37.3624 42.8718L33.5 46.5317L29.6376 42.8718C29.2669 42.5265 28.7671 42.3341 28.2473 42.3364C27.7274 42.3386 27.2296 42.5355 26.8622 42.884C26.4948 43.2326 26.2877 43.7045 26.2858 44.1971C26.284 44.6897 26.4877 45.1631 26.8525 45.514L31.5294 49.9457V57.2063C16.1457 56.3318 3.94118 45.2464 3.94118 31.7459V4.35911C3.93674 4.23521 3.9733 4.11309 4.04574 4.00985C4.11817 3.90662 4.22286 3.82743 4.34515 3.78336C4.43075 3.75026 4.52203 3.73232 4.61446 3.73045C4.76809 3.73145 4.91574 3.78697 5.02828 3.88606L12.175 11.6664C12.5007 12.0218 12.9562 12.2475 13.4501 12.2983C13.944 12.349 14.4399 12.2212 14.8385 11.9403C16.7529 10.6046 18.8278 9.48886 21.0196 8.61651V16.8077C21.0196 17.3029 21.2272 17.7778 21.5968 18.128C21.9663 18.4782 22.4676 18.6749 22.9902 18.6749C23.5128 18.6749 24.0141 18.4782 24.3836 18.128C24.7532 17.7778 24.9608 17.3029 24.9608 16.8077V7.31875C27.1067 6.76008 29.3081 6.41382 31.5294 6.28552V16.8077C31.5294 17.3029 31.737 17.7778 32.1066 18.128C32.4761 18.4782 32.9774 18.6749 33.5 18.6749C34.0226 18.6749 34.5239 18.4782 34.8934 18.128C35.263 17.7778 35.4706 17.3029 35.4706 16.8077V6.28552C37.6919 6.41382 39.8933 6.76008 42.0392 7.31875V16.8077C42.0392 17.3029 42.2468 17.7778 42.6164 18.128C42.9859 18.4782 43.4872 18.6749 44.0098 18.6749C44.5324 18.6749 45.0337 18.4782 45.4032 18.128C45.7728 17.7778 45.9804 17.3029 45.9804 16.8077V8.61651C48.173 9.49375 50.2479 10.6147 52.1615 11.9558C52.5601 12.2367 53.056 12.3646 53.5499 12.3138C54.0438 12.263 54.4993 12.0374 54.825 11.682L61.9717 3.90162C62.066 3.82413 62.1816 3.7737 62.3051 3.75623C62.4285 3.73876 62.5546 3.75498 62.6687 3.80298C62.7828 3.85098 62.88 3.92878 62.9491 4.02727C63.0182 4.12576 63.0563 4.24087 63.0588 4.35911V31.7459ZM22.3333 32.9908C22.3333 33.6063 22.1407 34.208 21.7798 34.7198C21.4189 35.2316 20.906 35.6305 20.3059 35.866C19.7057 36.1016 19.0454 36.1632 18.4083 36.0431C17.7712 35.923 17.186 35.6266 16.7267 35.1914C16.2673 34.7561 15.9545 34.2016 15.8278 33.5979C15.7011 32.9942 15.7661 32.3685 16.0147 31.7998C16.2633 31.2311 16.6842 30.7451 17.2244 30.4031C17.7645 30.0612 18.3994 29.8786 19.049 29.8786C19.9201 29.8786 20.7555 30.2065 21.3714 30.7901C21.9873 31.3738 22.3333 32.1654 22.3333 32.9908ZM51.2353 32.9908C51.2353 33.6063 51.0427 34.208 50.6818 34.7198C50.3209 35.2316 49.808 35.6305 49.2078 35.866C48.6077 36.1016 47.9473 36.1632 47.3102 36.0431C46.6731 35.923 46.0879 35.6266 45.6286 35.1914C45.1693 34.7561 44.8565 34.2016 44.7298 33.5979C44.6031 32.9942 44.6681 32.3685 44.9167 31.7998C45.1652 31.2311 45.5862 30.7451 46.1263 30.4031C46.6664 30.0612 47.3014 29.8786 47.951 29.8786C48.822 29.8786 49.6574 30.2065 50.2733 30.7901C50.8893 31.3738 51.2353 32.1654 51.2353 32.9908Z" fill="black"/>
</svg>
